<?xml version="1.0" encoding="UTF-8" standalone="no"?>
<!-- Created with Inkscape (http://www.inkscape.org/) -->

<svg
   xmlns:dc="http://purl.org/dc/elements/1.1/"
   xmlns:cc="http://creativecommons.org/ns#"
   xmlns:rdf="http://www.w3.org/1999/02/22-rdf-syntax-ns#"
   xmlns:svg="http://www.w3.org/2000/svg"
   xmlns="http://www.w3.org/2000/svg"
   xmlns:sodipodi="http://sodipodi.sourceforge.net/DTD/sodipodi-0.dtd"
   xmlns:inkscape="http://www.inkscape.org/namespaces/inkscape"
   width="201.87628mm"
   height="188.55611mm"
   viewBox="0 0 201.87628 188.55611"
   version="1.1"
   id="svg184"
   inkscape:version="0.92.2 2405546, 2018-03-11"
   sodipodi:docname="grasp_favicon.svg">
  <defs
     id="defs178" />
  <sodipodi:namedview
     id="base"
     pagecolor="#ffffff"
     bordercolor="#666666"
     borderopacity="1.0"
     inkscape:pageopacity="0.0"
     inkscape:pageshadow="2"
     inkscape:zoom="0.24748737"
     inkscape:cx="240.93264"
     inkscape:cy="107.76352"
     inkscape:document-units="mm"
     inkscape:current-layer="layer1"
     showgrid="false"
     inkscape:window-width="1366"
     inkscape:window-height="714"
     inkscape:window-x="0"
     inkscape:window-y="54"
     inkscape:window-maximized="0" />
  <metadata
     id="metadata181">
    <rdf:RDF>
      <cc:Work
         rdf:about="">
        <dc:format>image/svg+xml</dc:format>
        <dc:type
           rdf:resource="http://purl.org/dc/dcmitype/StillImage" />
        <dc:title></dc:title>
      </cc:Work>
    </rdf:RDF>
  </metadata>
  <g
     inkscape:label="Livello 1"
     inkscape:groupmode="layer"
     id="layer1"
     transform="translate(-1.6933524,-6.0115761)">
    <g
       transform="matrix(0.26458333,0,0,0.26458333,-203.53547,-11.982207)"
       id="Layer_6">
      <polygon
         style="fill:#5b7778"
         points="1039,679.996 1295,780.661 948.667,711.998 "
         id="polygon67" />
      <polygon
         style="fill:#5b7778"
         points="948.667,616 775.668,391.004 943.002,709 "
         id="polygon69" />
      <polygon
         style="fill:#608182"
         points="981.002,657.668 1033.002,678.335 948.667,709 "
         id="polygon71" />
      <polygon
         style="fill:#608182"
         points="978.668,657.668 950.002,618.335 946.002,707.001 "
         id="polygon73" />
      <polygon
         style="fill:#79a0a2"
         points="963.333,351.003 778,391.004 948.667,612.666 "
         id="polygon75" />
      <polygon
         style="fill:#7eabad"
         points="976,286.339 963.333,348.339 778,389.005 "
         id="polygon77" />
      <polygon
         style="fill:#89b3b5"
         points="1020,260.673 1015.333,68.008 978,282.673 "
         id="polygon79" />
      <polygon
         style="fill:#89b3b5"
         points="967,347.003 978,286.339 1020,263.67 1013.667,328.003 "
         id="polygon81" />
      <polygon
         style="fill:#89b3b5"
         points="1013.667,332.334 1007.667,379.334 967,349.668 "
         id="polygon83" />
      <polygon
         style="fill:#7eabad"
         points="976,284.005 1013.667,68.008 778,387.005 "
         id="polygon85" />
      <polygon
         style="fill:#7eabad"
         points="950.333,614.329 967,352.666 1007.333,381.666 978.668,652.663 "
         id="polygon87" />
      <polygon
         style="fill:#8ebbbd"
         points="1228.333,548.667 1008.999,382.673 980.333,655.666 "
         id="polygon89" />
      <polygon
         style="fill:#94c1c4"
         points="1014.999,332.334 1079.999,305.337 1298.333,463.002 1292,521.001 1229.667,548.001 1009.666,379.334 "
         id="polygon91" />
      <polygon
         style="fill:#94c1c4"
         points="1077.002,302.005 1021.668,263.67 1015.668,327.005 "
         id="polygon93" />
      <polygon
         style="fill:#c2d8d8"
         points="1265.668,175.904 1017.001,68.008 1022.001,260.011 "
         id="polygon95" />
      <polygon
         style="fill:#c9e1e3"
         points="1367.001,141.679 1268.335,174.346 1021.668,68.008 "
         id="polygon97" />
      <polygon
         style="fill:#b1d1d1"
         points="1079.669,301.342 1023.334,261.679 1268.334,177.345 1323.334,201.01 "
         id="polygon99" />
      <polygon
         style="fill:#abced1"
         points="1326.336,202.676 1298.333,459.005 1081.669,303.34 "
         id="polygon101" />
      <polygon
         style="fill:#b1d1d1"
         points="1300.336,460.34 1328.003,204.675 1364.003,247.675 1349.003,496.34 "
         id="polygon103" />
      <polygon
         style="fill:#99c4c5"
         points="1294.336,519.169 1347.003,496.34 1300.336,462.672 "
         id="polygon105" />
      <polygon
         style="fill:#669fa0"
         points="1038.003,678 982.67,657.668 1229.67,550.002 1282.67,591.666 "
         id="polygon107" />
      <polygon
         style="fill:#599497"
         points="1282.67,593.998 1300.002,780.661 1040.67,679.996 "
         id="polygon109" />
      <polygon
         style="fill:#629596"
         points="1337.335,568 1302.002,776.33 1286.002,593.998 "
         id="polygon111" />
      <polygon
         style="fill:#629596"
         points="1339.668,566.331 1535.001,467.667 1304.668,776.33 "
         id="polygon113" />
      <polygon
         style="fill:#6ea7a9"
         points="1291.999,523.003 1231.617,550.002 1284.666,591.003 "
         id="polygon115" />
      <polygon
         style="fill:#71a7a9"
         points="1348.666,499.004 1294.336,523.003 1287.666,591.003 1337.335,564.671 "
         id="polygon117" />
      <polygon
         style="fill:#71a7a9"
         points="1350.332,499.004 1538.665,464.006 1339.999,563.671 "
         id="polygon119" />
      <polygon
         style="fill:#99c4c5"
         points="1538.665,462.672 1365.667,248.67 1350.667,496.34 "
         id="polygon121" />
      <polygon
         style="fill:#90c8cb"
         points="1372.333,145.008 1538.665,459.005 1365.667,245.341 "
         id="polygon123" />
      <polygon
         style="fill:#a7d4d6"
         points="1370.333,143.674 1364.003,242.674 1328,201.34 "
         id="polygon125" />
      <polygon
         style="fill:#b7dbdd"
         points="1368.667,143.674 1271.667,176.008 1325,199.341 "
         id="polygon127" />
    </g>
  </g>
</svg>
